<svg width="85" height="24" viewBox="0 0 85 24" fill="none" xmlns="http://www.w3.org/2000/svg">
<g clip-path="url(#clip0_417_3700)">
<path d="M32.9393 11.0873C34.6833 11.0873 35.8549 10.2909 36.3289 8.59068C36.3915 8.34907 36.7403 8.36696 36.7761 8.60857L37.1249 10.7562C37.1428 10.8726 37.2411 10.9531 37.3574 10.9531H38.8957C39.0209 10.9531 39.1282 10.8457 39.1282 10.7204V5.13654C39.1282 5.01126 39.0209 4.90388 38.8957 4.90388H33.9141C33.7889 4.90388 33.6816 5.01126 33.6816 5.13654V6.92625C33.6816 7.05153 33.7889 7.15891 33.9141 7.15891H35.9443C36.1411 7.15891 36.2484 7.40052 36.1232 7.5437C35.676 8.03587 35.0321 8.34907 34.1198 8.34907C32.6173 8.34907 31.5888 7.36473 31.5888 5.53028C31.5888 3.69582 32.4384 2.79202 34.1377 2.79202C35.837 2.79202 36.1769 3.38263 36.5078 4.22379C36.5614 4.36696 36.7403 4.42066 36.8655 4.32222L38.8689 2.72938C38.9583 2.65779 38.9851 2.53251 38.9315 2.43408C38.0997 0.939672 36.3557 -0.0178223 34.1377 -0.0178223C30.5245 -0.0178223 28.4496 2.2909 28.4496 5.53028C28.4496 8.76965 30.5603 11.0784 32.9482 11.0784L32.9393 11.0873Z" fill="white"/>
<path d="M42.9472 7.09626H43.1708C44.0562 7.09626 44.4586 7.37366 44.8969 8.0806L46.614 10.8546C46.6588 10.9262 46.7303 10.962 46.8108 10.962H51.8013C51.8997 10.962 51.9892 10.8994 52.0249 10.801L52.5794 9.10073C52.6063 9.00229 52.6957 8.93966 52.803 8.93966H56.5593C56.6577 8.93966 56.7471 9.00229 56.7829 9.10073L57.3374 10.801C57.3643 10.8994 57.4537 10.962 57.561 10.962H60.2441C60.4051 10.962 60.5124 10.801 60.4587 10.6488L56.7919 0.313258C56.7561 0.223773 56.6756 0.161133 56.5772 0.161133H52.8567C52.7583 0.161133 52.6689 0.223773 52.642 0.313258L49.4313 9.38708C49.3687 9.56605 49.1182 9.5929 49.0199 9.43183L48.4385 8.51907C48.0361 7.88373 47.6604 7.33787 47.0433 6.98887C46.8645 6.89044 46.9002 6.61303 47.1059 6.56829C48.528 6.22825 49.5386 5.2976 49.5386 3.53473C49.5386 1.77187 47.732 0.161133 45.2188 0.161133H40.282C40.1568 0.161133 40.0494 0.268515 40.0494 0.393795V10.7294C40.0494 10.8546 40.1568 10.962 40.282 10.962H42.7146C42.8398 10.962 42.9472 10.8546 42.9472 10.7294V7.09626ZM53.9567 4.9486L54.4576 3.07836C54.5202 2.8457 54.8422 2.8457 54.9048 3.07836L55.4056 4.9486C55.4056 4.9486 55.4056 4.9486 55.4056 4.95755L55.817 6.22825C55.8617 6.38037 55.7544 6.5325 55.5934 6.5325H53.751C53.5901 6.5325 53.4827 6.38037 53.5274 6.22825L53.9389 4.95755C53.9389 4.95755 53.9389 4.95755 53.9389 4.9486H53.9567ZM42.9472 2.97992C42.9472 2.85465 43.0545 2.74726 43.1797 2.74726H45.2546C46.0774 2.74726 46.4799 3.08731 46.4799 3.75845C46.4799 4.42959 46.0774 4.76963 45.2546 4.76963H43.1797C43.0545 4.76963 42.9472 4.66225 42.9472 4.53697V2.97098V2.97992Z" fill="white"/>
<path d="M62.6678 10.9619H65.1005C65.2257 10.9619 65.333 10.8546 65.333 10.7293V7.57044C65.333 7.5257 65.342 7.48991 65.3599 7.45411L69.3398 0.501093C69.4292 0.348968 69.3129 0.1521 69.143 0.1521H66.1201C66.0306 0.1521 65.9501 0.205791 65.9054 0.286328L64.9037 2.53241C64.9037 2.53241 64.9037 2.53241 64.9037 2.54136L64.1704 4.45635C64.0988 4.65322 63.8126 4.65322 63.7411 4.45635L63.0077 2.54136L62.0239 0.295276C61.9881 0.214739 61.9076 0.161048 61.8092 0.161048H58.6879C58.5091 0.161048 58.4017 0.348968 58.4822 0.510041L62.4085 7.42727C62.4264 7.46306 62.4353 7.49886 62.4353 7.5436V10.7293C62.4353 10.8546 62.5426 10.9619 62.6678 10.9619Z" fill="white"/>
<path d="M37.0891 13.1992H28.4317C28.3065 13.1992 28.1992 13.3066 28.1992 13.4319V15.5437C28.1992 15.669 28.3065 15.7764 28.4317 15.7764H31.079C31.2042 15.7764 31.3115 15.8838 31.3115 16.0091V23.7675C31.3115 23.8927 31.4189 24.0001 31.5441 24.0001H33.9767C34.1019 24.0001 34.2093 23.8927 34.2093 23.7675V16.0091C34.2093 15.8838 34.3166 15.7764 34.4418 15.7764H37.0891C37.2143 15.7764 37.3216 15.669 37.3216 15.5437V13.4319C37.3216 13.3066 37.2143 13.1992 37.0891 13.1992Z" fill="white"/>
<path d="M39.4592 13.3513L35.8013 23.6869C35.7476 23.839 35.8639 24.0001 36.0159 24.0001H38.6096C38.7079 24.0001 38.7974 23.9375 38.8331 23.839L39.3876 22.1388C39.4145 22.0404 39.5039 21.9777 39.6112 21.9777H43.3675C43.4659 21.9777 43.5554 22.0404 43.5911 22.1388L44.1456 23.839C44.1725 23.9375 44.2619 24.0001 44.3692 24.0001H47.0523C47.2133 24.0001 47.3206 23.839 47.267 23.6869L43.609 13.3513C43.5733 13.2619 43.4928 13.1992 43.3944 13.1992H39.6738C39.5755 13.1992 39.486 13.2619 39.4592 13.3513ZM40.3536 19.2574L40.765 17.9867C40.765 17.9867 40.765 17.9867 40.765 17.9777L41.2658 16.1075C41.3284 15.8748 41.6504 15.8748 41.713 16.1075L42.2138 17.9777C42.2138 17.9777 42.2138 17.9777 42.2138 17.9867L42.6252 19.2574C42.6699 19.4095 42.5626 19.5616 42.4016 19.5616H40.5593C40.3983 19.5616 40.2909 19.4095 40.3357 19.2574H40.3536Z" fill="white"/>
<path d="M50.3257 13.1992H47.893C47.7678 13.1992 47.6605 13.3066 47.6605 13.4319V23.7675C47.6605 23.8927 47.7678 24.0001 47.893 24.0001H55.5308C55.656 24.0001 55.7634 23.8927 55.7634 23.7675V21.6556C55.7634 21.5303 55.656 21.4229 55.5308 21.4229H50.7907C50.6655 21.4229 50.5582 21.3155 50.5582 21.1903V13.4319C50.5582 13.3066 50.4509 13.1992 50.3257 13.1992Z" fill="white"/>
<path d="M56.6309 24H64.4297C64.5549 24 64.6623 23.8926 64.6623 23.7673V21.6554C64.6623 21.5302 64.5549 21.4228 64.4297 21.4228H59.5286C59.4034 21.4228 59.2961 21.3154 59.2961 21.1901V20.1252C59.2961 20 59.4034 19.8926 59.5286 19.8926H63.6248C63.75 19.8926 63.8573 19.7852 63.8573 19.6599V17.5481C63.8573 17.4228 63.75 17.3154 63.6248 17.3154H59.5286C59.4034 17.3154 59.2961 17.208 59.2961 17.0827V16.0179C59.2961 15.8926 59.4034 15.7852 59.5286 15.7852H64.4297C64.5549 15.7852 64.6623 15.6778 64.6623 15.5525V13.4407C64.6623 13.3154 64.5549 13.208 64.4297 13.208H56.6309C56.5057 13.208 56.3984 13.3154 56.3984 13.4407V23.7762C56.3984 23.9015 56.5057 24.0089 56.6309 24.0089V24Z" fill="white"/>
<path d="M72.2017 16.6355L74.053 20.5102C74.1693 20.7607 73.8384 20.9666 73.6685 20.7518L71.4952 18.0762C71.4952 18.0762 71.4862 18.0672 71.4773 18.0583L68.3828 13.3066C68.3381 13.244 68.2665 13.1992 68.186 13.1992H65.646C65.5208 13.1992 65.4135 13.3066 65.4135 13.4319V23.7675C65.4135 23.8927 65.5208 24.0001 65.646 24.0001H68.0787C68.2039 24.0001 68.3112 23.8927 68.3112 23.7675V21.0381C68.3112 21.0024 68.3112 20.9755 68.2933 20.9397L66.29 16.5997C66.1737 16.3491 66.5046 16.1433 66.6746 16.3581L68.9731 19.15C68.9731 19.15 68.982 19.1589 68.982 19.1679L72.1928 23.9106C72.2375 23.9733 72.309 24.0091 72.3806 24.0091H74.8311C74.9563 24.0091 75.0637 23.9017 75.0637 23.7764V13.4408C75.0637 13.3155 74.9563 13.2082 74.8311 13.2082H72.3985C72.2733 13.2082 72.1659 13.3155 72.1659 13.4408V16.546C72.1659 16.5818 72.1659 16.6176 72.1928 16.6444L72.2017 16.6355Z" fill="white"/>
<path d="M75.8865 13.4319V15.5437C75.8865 15.669 75.9938 15.7764 76.119 15.7764H78.7663C78.8915 15.7764 78.9988 15.8838 78.9988 16.0091V23.7675C78.9988 23.8927 79.1062 24.0001 79.2314 24.0001H81.664C81.7892 24.0001 81.8966 23.8927 81.8966 23.7675V16.0091C81.8966 15.8838 82.0039 15.7764 82.1291 15.7764H84.7764C84.9016 15.7764 85.0089 15.669 85.0089 15.5437V13.4319C85.0089 13.3066 84.9016 13.1992 84.7764 13.1992H76.119C75.9938 13.1992 75.8865 13.3066 75.8865 13.4319Z" fill="white"/>
<path d="M8.96158 10.8725L0.903395 9.39597C0.74241 9.36912 0.590368 9.4765 0.563538 9.62863L9.05334e-05 12.6801C-0.0267403 12.8412 0.080583 12.9933 0.232624 13.0201L4.1052 13.7271C4.14992 13.7271 4.19464 13.7271 4.23936 13.7271L9.01524 12.4295C9.31038 12.349 9.53397 12.1074 9.58763 11.8031C9.66813 11.3646 9.38193 10.953 8.94369 10.8725H8.96158Z" fill="white"/>
<path d="M9.00623 13.1365L1.88712 17.1813C1.74403 17.2618 1.69931 17.4408 1.7798 17.584L3.30916 20.2775C3.38965 20.4207 3.56852 20.4654 3.71162 20.3849L7.13702 18.4341C7.17279 18.4162 7.20857 18.3804 7.2354 18.3446L10.0616 14.2819C10.2404 14.0314 10.2494 13.7003 10.0974 13.4318C9.8827 13.047 9.39081 12.9128 9.00623 13.1276V13.1365Z" fill="white"/>
<path d="M10.4908 14.8456L7.63783 22.5235C7.58417 22.6756 7.65572 22.8456 7.80776 22.8993L10.7144 23.9821C10.8665 24.0358 11.0364 23.9642 11.0901 23.812L12.4584 20.1163C12.4763 20.0716 12.4763 20.0268 12.4763 19.991L12.0291 15.0604C12.0023 14.7561 11.7966 14.4877 11.5104 14.3803C11.099 14.2282 10.6339 14.434 10.4819 14.8546L10.4908 14.8456Z" fill="white"/>
<path d="M12.7268 15.1947L15.4725 22.9083C15.5261 23.0604 15.696 23.141 15.8481 23.0873L18.7637 22.0492C18.9157 21.9955 18.9962 21.8255 18.9426 21.6734L17.6189 17.9598C17.601 17.915 17.5831 17.8792 17.5474 17.8524L14.0325 14.3624C13.8179 14.1477 13.487 14.0761 13.2008 14.1745C12.7894 14.3266 12.5658 14.783 12.7178 15.1947H12.7268Z" fill="white"/>
<path d="M14.6675 14.0224L21.7329 18.1656C21.876 18.2462 22.0549 18.2014 22.1354 18.0582L23.7005 15.3826C23.781 15.2394 23.7363 15.0605 23.5932 14.9799L20.1946 12.9844C20.1589 12.9665 20.1141 12.9486 20.0694 12.9486L15.1326 12.537C14.8285 12.5101 14.5333 12.6623 14.3724 12.9307C14.1488 13.3155 14.274 13.7987 14.6586 14.0224H14.6675Z" fill="white"/>
<path d="M15.4009 11.8748L23.477 10.5056C23.638 10.4788 23.7453 10.3267 23.7185 10.1656L23.1997 7.11413C23.1729 6.95306 23.0209 6.84567 22.8599 6.87252L18.9784 7.53471C18.9336 7.53471 18.8979 7.56156 18.8621 7.5884L14.8196 10.443C14.5692 10.622 14.4439 10.9262 14.4887 11.2305C14.5602 11.6689 14.9716 11.9553 15.4099 11.8837L15.4009 11.8748Z" fill="white"/>
<path d="M14.587 9.76281L19.8906 3.52568C19.9979 3.4004 19.98 3.21248 19.8548 3.11405L17.4937 1.10957C17.3685 1.00219 17.1806 1.02009 17.0823 1.14537L14.5333 4.14313C14.5065 4.17892 14.4886 4.21472 14.4707 4.25946L13.2007 9.04693C13.1203 9.34223 13.2186 9.66438 13.4601 9.86125C13.8 10.1476 14.3008 10.1029 14.587 9.77176V9.76281Z" fill="white"/>
<path d="M12.6015 8.67104L12.6552 0.483121C12.6552 0.322047 12.521 0.187819 12.3601 0.187819L9.26557 0.169922C9.10459 0.169922 8.97043 0.30415 8.97043 0.465224L8.9436 4.40258C8.9436 4.44733 8.95255 4.49207 8.97043 4.52786L11.0811 9.01108C11.2153 9.28849 11.4925 9.46746 11.7966 9.46746C12.2348 9.46746 12.6015 9.11847 12.6015 8.67104Z" fill="white"/>
<path d="M10.3835 9.10961L5.16048 2.80088C5.05315 2.6756 4.87428 2.65771 4.74907 2.76509L2.36113 4.74272C2.23592 4.8501 2.21803 5.02907 2.32535 5.15435L4.83851 8.18791C4.86534 8.2237 4.90111 8.25055 4.94583 8.26845L9.43552 10.3445C9.71277 10.4698 10.0437 10.434 10.2852 10.2371C10.625 9.95972 10.6697 9.44965 10.3925 9.10961H10.3835Z" fill="white"/>
</g>
<defs>
<clipPath id="clip0_417_3700">
<rect width="85" height="24" fill="white"/>
</clipPath>
</defs>
</svg>
