<svg width="22" height="22" viewBox="0 0 22 22" fill="none" xmlns="http://www.w3.org/2000/svg">
<g clip-path="url(#clip0_417_3604)">
<path d="M8.82785 12.841C8.77948 12.7891 8.71245 12.7585 8.64153 12.756C8.5706 12.7535 8.50158 12.7793 8.44966 12.8277C8.39773 12.8761 8.36715 12.9431 8.36465 13.014C8.36214 13.0849 8.38791 13.1539 8.43629 13.2059C8.84853 13.6464 9.13091 14.1924 9.25221 14.7834C9.37352 15.3744 9.32901 15.9875 9.12362 16.5548C9.09963 16.6216 9.10315 16.6952 9.13341 16.7594C9.16367 16.8236 9.21819 16.8731 9.28498 16.8971C9.35177 16.9211 9.42535 16.9176 9.48954 16.8873C9.55373 16.8571 9.60327 16.8025 9.62727 16.7357C9.86611 16.076 9.91785 15.363 9.77677 14.6757C9.63569 13.9883 9.30728 13.3534 8.82785 12.841Z" fill="#153536"/>
<path d="M15.182 6.54193L15.1042 6.49842C14.9907 6.43499 14.8656 6.39521 14.7363 6.38149C14.6071 6.36777 14.4764 6.3804 14.3521 6.4186C14.2279 6.45681 14.1127 6.5198 14.0135 6.60377C13.9142 6.68775 13.8331 6.79096 13.7749 6.90718L12.6411 9.17106L13.5348 5.98611C13.5996 5.75196 13.5738 5.50196 13.4624 5.28604C13.351 5.07012 13.1623 4.90416 12.9339 4.82131L12.8146 4.77846C12.5801 4.69333 12.3218 4.70294 12.0943 4.80524C11.8669 4.90755 11.6883 5.09448 11.5964 5.32636L10.2761 8.62611L10.7813 5.6574C10.8229 5.41277 10.7684 5.16151 10.6292 4.95612C10.4899 4.75074 10.2766 4.60713 10.0339 4.55531C9.79127 4.5035 9.53795 4.54748 9.32694 4.67807C9.11594 4.80866 8.96357 5.01575 8.90168 5.25606C8.6052 6.40786 7.74411 9.75062 7.41224 11.0168L6.27874 9.74136C6.09449 9.53406 5.84053 9.40163 5.56509 9.36921C5.28964 9.33679 5.01187 9.40663 4.78452 9.56548C4.55717 9.72434 4.39606 9.96114 4.33177 10.2309C4.26749 10.5007 4.3045 10.7847 4.43579 11.029L5.48662 12.9838C5.54345 13.0896 5.59304 13.1991 5.63507 13.3116L5.75805 13.641C6.00687 14.32 6.17735 15.0251 6.26618 15.7427C6.34955 16.3896 6.60949 17.0009 7.01748 17.5098C7.42547 18.0186 7.96574 18.4052 8.579 18.6271L8.70415 18.6745C8.72245 18.6814 8.74068 18.6881 8.75909 18.6948C9.63597 19.0078 10.601 18.9618 11.4441 18.5666L11.4704 18.5543C12.0971 18.26 12.6256 17.791 12.9922 17.2036L16.9053 10.9317C17.0505 10.6991 17.1022 10.4202 17.0502 10.151C16.9981 9.88187 16.8461 9.64237 16.6247 9.48069C16.4033 9.319 16.1289 9.24711 15.8567 9.27947C15.5844 9.31182 15.3345 9.44602 15.1571 9.6551L14.1784 10.8085C14.6638 9.75023 15.2711 8.45404 15.5829 7.79039C15.6856 7.57005 15.7013 7.31907 15.627 7.08762C15.5527 6.85617 15.3937 6.66129 15.182 6.54193ZM13.6687 12.2363L15.5653 10.0014C15.6552 9.89547 15.7818 9.82751 15.9198 9.81114C16.0577 9.79477 16.1968 9.83121 16.309 9.91313C16.4212 9.99506 16.4982 10.1164 16.5246 10.2528C16.551 10.3892 16.5249 10.5305 16.4514 10.6484L12.5383 16.9203C12.226 17.4203 11.776 17.8196 11.2423 18.0702L11.216 18.0825C10.8546 18.252 10.463 18.3474 10.0641 18.3631C9.66525 18.3788 9.2673 18.3145 8.89371 18.1739L8.76562 18.1254C8.24389 17.9372 7.78414 17.6088 7.43684 17.1763C7.08954 16.7439 6.86814 16.2241 6.79695 15.674C6.7029 14.9159 6.52257 14.1709 6.25946 13.4537L6.13645 13.1243C6.08595 12.9891 6.02637 12.8575 5.9581 12.7304L4.90729 10.7756C4.83795 10.6468 4.81834 10.497 4.85219 10.3547C4.88604 10.2124 4.97099 10.0875 5.0909 10.0037C5.2108 9.91996 5.35731 9.88315 5.50257 9.90031C5.64783 9.91746 5.78173 9.98738 5.87882 10.0968L7.34286 11.744C7.37467 11.7798 7.4155 11.8064 7.4611 11.8211C7.50669 11.8357 7.55538 11.8379 7.60208 11.8273C7.64879 11.8167 7.69179 11.7937 7.7266 11.7609C7.76142 11.728 7.78678 11.6863 7.80002 11.6403C7.89253 11.319 8.96381 7.16183 9.42006 5.38936C9.43486 5.33189 9.4615 5.27814 9.49827 5.23155C9.53503 5.18496 9.58111 5.14656 9.63357 5.1188C9.68603 5.09104 9.7437 5.07453 9.8029 5.07033C9.8621 5.06614 9.92152 5.07434 9.97737 5.09442C10.0717 5.1282 10.1511 5.19414 10.2017 5.28065C10.2522 5.36716 10.2706 5.46872 10.2537 5.56748L9.43222 10.3954C9.41835 10.4768 9.4351 10.5605 9.47925 10.6303C9.52339 10.7001 9.5918 10.7511 9.67131 10.7735C9.75081 10.7959 9.83579 10.7881 9.90987 10.7515C9.98395 10.715 10.0419 10.6524 10.0725 10.5757L12.0931 5.52488C12.1338 5.42203 12.213 5.33911 12.3139 5.29373C12.4148 5.24835 12.5294 5.24409 12.6334 5.28184L12.7527 5.3247C12.854 5.36145 12.9377 5.43504 12.9871 5.53079C13.0365 5.62653 13.048 5.73739 13.0193 5.84124L11.5589 11.0464C11.5366 11.1265 11.5449 11.2119 11.5822 11.2862C11.6195 11.3604 11.6831 11.4181 11.7606 11.4481C11.8381 11.478 11.924 11.478 12.0015 11.4481C12.079 11.4182 12.1426 11.3605 12.18 11.2863L14.2532 7.14668C14.279 7.09511 14.315 7.04931 14.359 7.01204C14.403 6.97478 14.4541 6.94683 14.5093 6.92988C14.5644 6.91294 14.6224 6.90734 14.6797 6.91344C14.7371 6.91953 14.7926 6.93719 14.8429 6.96535L14.9207 7.00884C15.0146 7.0618 15.0851 7.14824 15.118 7.2509C15.151 7.35355 15.144 7.46487 15.0985 7.5626C14.6312 8.55716 13.5017 10.9695 13.1063 11.8877C13.0746 11.9613 13.0705 12.0438 13.0945 12.1202C13.1186 12.1967 13.1693 12.2619 13.2374 12.3041C13.3055 12.3463 13.3865 12.3627 13.4656 12.3502C13.5448 12.3377 13.6168 12.2973 13.6686 12.2362L13.6687 12.2363Z" fill="#153536"/>
<path d="M12.3013 13.5394L9.66643 12.3374C9.6344 12.3224 9.59972 12.3139 9.56439 12.3124C9.52906 12.3109 9.49378 12.3164 9.46059 12.3286C9.4274 12.3408 9.39696 12.3595 9.37103 12.3835C9.3451 12.4075 9.32419 12.4365 9.30952 12.4687C9.29484 12.5008 9.28669 12.5356 9.28553 12.5709C9.28437 12.6063 9.29023 12.6415 9.30276 12.6746C9.3153 12.7076 9.33426 12.7379 9.35856 12.7636C9.38286 12.7893 9.41202 12.8099 9.44433 12.8243L12.0792 14.0263C12.0861 14.0295 12.093 14.0323 12.1 14.0348C12.165 14.0582 12.2365 14.0555 12.2996 14.0273C12.3626 13.9991 12.4123 13.9477 12.4383 13.8837C12.4643 13.8197 12.4646 13.7481 12.439 13.684C12.4135 13.6198 12.3641 13.568 12.3013 13.5394Z" fill="#153536"/>
<path d="M19.741 9.67144C19.1519 7.84385 18.0435 6.22729 16.551 5.01907C16.5237 4.99663 16.4923 4.97982 16.4585 4.96959C16.4247 4.95936 16.3892 4.95593 16.3541 4.95949C16.3189 4.96305 16.2848 4.97353 16.2538 4.99033C16.2227 5.00713 16.1953 5.02991 16.173 5.05736C16.1508 5.08481 16.1343 5.11639 16.1243 5.15028C16.1143 5.18416 16.1112 5.21969 16.115 5.25479C16.1189 5.2899 16.1296 5.32391 16.1467 5.35484C16.1637 5.38577 16.1867 5.41303 16.2143 5.43503C17.6261 6.57807 18.6746 8.1074 19.2319 9.83633C19.2538 9.90385 19.3015 9.95991 19.3648 9.99219C19.428 10.0245 19.5014 10.0303 19.5689 10.0085C19.6364 9.98659 19.6925 9.9388 19.7248 9.87559C19.757 9.81239 19.7629 9.73895 19.741 9.67144Z" fill="#153536"/>
<path d="M12.4871 3.60401C13.4212 3.82763 14.3158 4.19192 15.1403 4.68439C15.1705 4.70244 15.2039 4.71438 15.2387 4.71952C15.2734 4.72466 15.3089 4.7229 15.3429 4.71434C15.377 4.70579 15.4091 4.6906 15.4373 4.66965C15.4655 4.6487 15.4893 4.6224 15.5074 4.59225C15.5255 4.56209 15.5374 4.52868 15.5425 4.49392C15.5477 4.45915 15.5459 4.42371 15.5374 4.38963C15.5288 4.35554 15.5136 4.32347 15.4927 4.29526C15.4717 4.26704 15.4454 4.24323 15.4153 4.22518C14.544 3.70473 13.5986 3.31976 12.6116 3.08348C12.5432 3.06853 12.4716 3.08101 12.4123 3.11826C12.353 3.1555 12.3106 3.21452 12.2943 3.28265C12.278 3.35078 12.2891 3.42259 12.3251 3.48265C12.3612 3.5427 12.4194 3.58622 12.4872 3.60386L12.4871 3.60401Z" fill="#153536"/>
<path d="M9.69433 3.36915C9.76513 3.36438 9.83114 3.33167 9.87784 3.27823C9.92453 3.22478 9.94808 3.15498 9.9433 3.08418C9.93853 3.01337 9.90582 2.94736 9.85238 2.90067C9.79894 2.85398 9.72913 2.83043 9.65833 2.8352C7.9981 2.94921 6.39296 3.47767 4.98971 4.37223C4.92988 4.4104 4.88766 4.47077 4.87235 4.54007C4.85703 4.60936 4.86986 4.6819 4.90803 4.74174C4.9462 4.80157 5.00657 4.84379 5.07587 4.8591C5.14516 4.87442 5.2177 4.86159 5.27754 4.82342C6.60507 3.97705 8.12364 3.47704 9.69433 3.36915Z" fill="#153536"/>
<path d="M5.00071 6.48347C5.02167 6.51168 5.04797 6.53548 5.07813 6.55353C5.10828 6.57157 5.14169 6.58349 5.17646 6.58862C5.21122 6.59375 5.24666 6.59198 5.28074 6.58342C5.31482 6.57485 5.34687 6.55966 5.37508 6.5387C6.05086 6.03642 6.80104 5.64293 7.59843 5.37249C7.63193 5.36138 7.66291 5.34375 7.68958 5.32062C7.71624 5.29749 7.73806 5.2693 7.75379 5.2377C7.76951 5.20609 7.77883 5.17169 7.7812 5.13647C7.78357 5.10125 7.77895 5.0659 7.7676 5.03248C7.75625 4.99905 7.7384 4.9682 7.71507 4.9417C7.69175 4.9152 7.66341 4.89358 7.63169 4.87809C7.59997 4.86259 7.5655 4.85352 7.53026 4.85141C7.49503 4.84929 7.45972 4.85417 7.42637 4.86576C6.57628 5.15407 5.77651 5.57358 5.05606 6.10907C5.02784 6.13002 5.00402 6.15632 4.98596 6.18647C4.96791 6.21662 4.95597 6.25004 4.95083 6.28481C4.94569 6.31957 4.94745 6.35501 4.95601 6.3891C4.96457 6.42319 4.97976 6.45525 5.00071 6.48347Z" fill="#153536"/>
<path d="M18.2353 10.9255C18.269 10.9157 18.3005 10.8993 18.3279 10.8773C18.3553 10.8553 18.3781 10.8281 18.395 10.7973C18.4119 10.7665 18.4225 10.7326 18.4263 10.6977C18.4301 10.6628 18.427 10.6274 18.4172 10.5937C18.1312 9.6117 17.6721 8.68867 17.0617 7.86801C17.0194 7.81105 16.9562 7.77323 16.8859 7.76288C16.8157 7.75252 16.7443 7.77049 16.6873 7.81281C16.6304 7.85514 16.5925 7.91836 16.5822 7.98857C16.5718 8.05878 16.5898 8.13023 16.6321 8.18719C17.2047 8.95689 17.6352 9.82263 17.9034 10.7437C17.9133 10.7774 17.9297 10.8089 17.9517 10.8363C17.9737 10.8637 18.0009 10.8864 18.0317 10.9033C18.0625 10.9202 18.0963 10.9309 18.1313 10.9347C18.1662 10.9385 18.2016 10.9354 18.2353 10.9255Z" fill="#153536"/>
</g>
<defs>
<clipPath id="clip0_417_3604">
<rect width="17.1251" height="17.1251" fill="white" transform="translate(5.78955) rotate(19.7598)"/>
</clipPath>
</defs>
</svg>
