<svg width="46" height="45" viewBox="0 0 46 45" fill="none" xmlns="http://www.w3.org/2000/svg">
<path d="M45.5456 22.4963C40.0066 9.05757 29.5638 0 17.5904 0C5.61705 0 6.41205 5.15493 6.41205 11.5098C6.41205 17.8647 6.47149 12.8555 6.58294 13.5022C6.54208 13.5022 6.50493 13.4985 6.46778 13.4985C2.89397 13.4985 0 15.562 0 18.1039C0 20.6459 1.90207 21.9094 4.52484 22.4963C1.90207 23.0832 0 24.8251 0 26.8886C0 28.9521 2.89397 31.4903 6.46406 31.4903C10.0342 31.4903 6.54208 31.4903 6.58294 31.4865C6.47149 32.137 6.41205 32.8024 6.41205 33.4827C6.41205 39.8413 11.4198 44.9963 17.5941 44.9963C29.5675 44.9963 40.0103 35.935 45.5494 22.4925L45.5456 22.4963ZM33.4905 13.4387C34.7573 13.4387 35.7827 14.4704 35.7827 15.7451C35.7827 17.0199 34.7573 18.0516 33.4905 18.0516C32.2237 18.0516 31.1984 17.0199 31.1984 15.7451C31.1984 14.4704 32.2237 13.4387 33.4905 13.4387ZM22.4868 33.5201C19.2622 33.5201 16.6505 30.9931 16.6505 27.8792C16.6505 24.7653 18.3669 23.214 20.737 22.4963H37.0829C34.1927 29.0829 28.7391 33.5201 22.4905 33.5201H22.4868Z" fill="white"/>
</svg>
