<svg width="12" height="12" viewBox="0 0 12 12" fill="none" xmlns="http://www.w3.org/2000/svg">
<path d="M3.23936 4.01758H1.00739V11.3708H3.23936V4.01758Z" fill="white"/>
<path d="M2.0974 3.05851C2.82409 3.05851 3.39506 2.47238 3.39506 1.7264C3.39506 0.980415 2.82409 0.394287 2.0974 0.394287C1.37071 0.394287 0.799744 0.980415 0.799744 1.7264C0.799744 2.47238 1.37071 3.05851 2.0974 3.05851Z" fill="white"/>
<path d="M6.76899 7.53435C6.76899 6.52195 7.23615 5.88253 8.11856 5.88253C9.00096 5.88253 9.3124 6.46866 9.3124 7.53435V11.3708H11.4925V6.73509C11.4925 4.76356 10.4024 3.80444 8.89715 3.80444C7.39187 3.80444 6.71709 5.02999 6.71709 5.02999V4.01758H4.58893V11.3708H6.71709V7.53435H6.76899Z" fill="white"/>
</svg>
