<svg width="125" height="36" viewBox="0 0 125 36" fill="none" xmlns="http://www.w3.org/2000/svg">
<g clip-path="url(#clip0_417_3580)">
<path d="M48.4401 16.6309C51.0048 16.6309 52.7278 15.4362 53.4249 12.8859C53.5169 12.5235 54.0299 12.5503 54.0825 12.9127L54.5954 16.1342C54.6217 16.3087 54.7664 16.4295 54.9374 16.4295H57.1996C57.3837 16.4295 57.5416 16.2684 57.5416 16.0805V7.70469C57.5416 7.51677 57.3837 7.35569 57.1996 7.35569H49.8737C49.6896 7.35569 49.5318 7.51677 49.5318 7.70469V10.3893C49.5318 10.5772 49.6896 10.7382 49.8737 10.7382H52.8593C53.1487 10.7382 53.3065 11.1007 53.1224 11.3154C52.4647 12.0537 51.5178 12.5235 50.1762 12.5235C47.9666 12.5235 46.4541 11.047 46.4541 8.29529C46.4541 5.54361 47.7036 4.18791 50.2025 4.18791C52.7015 4.18791 53.2013 5.07382 53.6879 6.33556C53.7668 6.55033 54.0299 6.63086 54.214 6.48321L57.1601 4.09395C57.2917 3.98657 57.3311 3.79865 57.2522 3.651C56.029 1.40939 53.4643 -0.0268555 50.2025 -0.0268555C44.889 -0.0268555 41.8376 3.43623 41.8376 8.29529C41.8376 13.1544 44.9416 16.6174 48.4533 16.6174L48.4401 16.6309Z" fill="white"/>
<path d="M63.1576 10.6443H63.4864C64.7885 10.6443 65.3804 11.0604 66.0248 12.1208L68.5501 16.2818C68.6158 16.3892 68.7211 16.4429 68.8394 16.4429H76.1784C76.3231 16.4429 76.4546 16.349 76.5072 16.2013L77.3227 13.651C77.3622 13.5033 77.4937 13.4094 77.6515 13.4094H83.1755C83.3202 13.4094 83.4517 13.5033 83.5043 13.651L84.3197 16.2013C84.3592 16.349 84.4907 16.4429 84.6486 16.4429H88.5943C88.831 16.4429 88.9888 16.2013 88.9099 15.9731L83.5175 0.469765C83.4648 0.335537 83.3465 0.241577 83.2018 0.241577H77.7304C77.5857 0.241577 77.4542 0.335537 77.4148 0.469765L72.6931 14.0805C72.601 14.349 72.2327 14.3892 72.0881 14.1476L71.2331 12.7785C70.6413 11.8255 70.0889 11.0067 69.1814 10.4832C68.9183 10.3355 68.9709 9.91943 69.2735 9.85231C71.3647 9.34225 72.8509 7.94628 72.8509 5.30198C72.8509 2.65768 70.1941 0.241577 66.4983 0.241577H59.2382C59.0541 0.241577 58.8962 0.402651 58.8962 0.59057V16.0939C58.8962 16.2818 59.0541 16.4429 59.2382 16.4429H62.8156C62.9998 16.4429 63.1576 16.2818 63.1576 16.0939V10.6443ZM79.3482 7.42278L80.0847 4.61742C80.1768 4.26842 80.6502 4.26842 80.7423 4.61742L81.4788 7.42278C81.4788 7.42278 81.4788 7.42279 81.4788 7.43621L82.0838 9.34225C82.1496 9.57044 81.9918 9.79862 81.755 9.79862H79.0457C78.8089 9.79862 78.6511 9.57044 78.7168 9.34225L79.3218 7.43621C79.3218 7.43621 79.3218 7.43621 79.3218 7.42278H79.3482ZM63.1576 4.46977C63.1576 4.28185 63.3154 4.12077 63.4996 4.12077H66.5509C67.7609 4.12077 68.3528 4.63084 68.3528 5.63755C68.3528 6.64426 67.7609 7.15433 66.5509 7.15433H63.4996C63.3154 7.15433 63.1576 6.99326 63.1576 6.80534V4.45634V4.46977Z" fill="white"/>
<path d="M92.1585 16.4429H95.736C95.9201 16.4429 96.0779 16.2818 96.0779 16.0939V11.3557C96.0779 11.2886 96.0911 11.2349 96.1174 11.1812L101.97 0.751639C102.102 0.523451 101.931 0.228149 101.681 0.228149H97.2353C97.1038 0.228149 96.9855 0.308686 96.9197 0.429492L95.4466 3.79862C95.4466 3.79862 95.4466 3.79862 95.4466 3.81204L94.3681 6.68453C94.2629 6.97983 93.842 6.97983 93.7368 6.68453L92.6583 3.81204L91.2116 0.442915C91.159 0.322109 91.0406 0.241572 90.8959 0.241572H86.3057C86.0427 0.241572 85.8849 0.523451 86.0032 0.765062L91.7771 11.1409C91.8034 11.1946 91.8166 11.2483 91.8166 11.3154V16.0939C91.8166 16.2818 91.9744 16.4429 92.1585 16.4429Z" fill="white"/>
<path d="M54.5428 19.7987H41.8113C41.6272 19.7987 41.4694 19.9598 41.4694 20.1477V23.3155C41.4694 23.5034 41.6272 23.6645 41.8113 23.6645H45.7044C45.8886 23.6645 46.0464 23.8256 46.0464 24.0135V35.6511C46.0464 35.839 46.2042 36 46.3883 36H49.9658C50.1499 36 50.3077 35.839 50.3077 35.6511V24.0135C50.3077 23.8256 50.4656 23.6645 50.6497 23.6645H54.5428C54.7269 23.6645 54.8848 23.5034 54.8848 23.3155V20.1477C54.8848 19.9598 54.7269 19.7987 54.5428 19.7987Z" fill="white"/>
<path d="M58.0282 20.0269L52.6489 35.5303C52.57 35.7584 52.741 36 52.9645 36H56.7787C56.9234 36 57.0549 35.9061 57.1075 35.7584L57.923 33.2081C57.9624 33.0604 58.094 32.9665 58.2518 32.9665H63.7758C63.9205 32.9665 64.052 33.0604 64.1046 33.2081L64.92 35.7584C64.9595 35.9061 65.091 36 65.2488 36H69.1945C69.4313 36 69.5891 35.7584 69.5102 35.5303L64.1309 20.0269C64.0783 19.8927 63.9599 19.7987 63.8152 19.7987H58.3439C58.1992 19.7987 58.0677 19.8927 58.0282 20.0269ZM59.3434 28.886L59.9484 26.9799C59.9484 26.9799 59.9484 26.9799 59.9484 26.9665L60.685 24.1611C60.777 23.8121 61.2505 23.8121 61.3426 24.1611L62.0791 26.9665C62.0791 26.9665 62.0791 26.9665 62.0791 26.9799L62.6841 28.886C62.7499 29.1141 62.5921 29.3423 62.3553 29.3423H59.6459C59.4092 29.3423 59.2514 29.1141 59.3171 28.886H59.3434Z" fill="white"/>
<path d="M74.0083 19.7987H70.4309C70.2468 19.7987 70.0889 19.9598 70.0889 20.1477V35.6511C70.0889 35.839 70.2468 36 70.4309 36H81.663C81.8471 36 82.005 35.839 82.005 35.6511V32.4833C82.005 32.2954 81.8471 32.1343 81.663 32.1343H74.6923C74.5081 32.1343 74.3503 31.9732 74.3503 31.7853V20.1477C74.3503 19.9598 74.1925 19.7987 74.0083 19.7987Z" fill="white"/>
<path d="M83.2807 36.0001H94.7496C94.9337 36.0001 95.0916 35.839 95.0916 35.6511V32.4833C95.0916 32.2954 94.9337 32.1343 94.7496 32.1343H87.5421C87.358 32.1343 87.2001 31.9732 87.2001 31.7853V30.188C87.2001 30.0001 87.358 29.839 87.5421 29.839H93.5659C93.75 29.839 93.9079 29.6779 93.9079 29.49V26.3222C93.9079 26.1343 93.75 25.9732 93.5659 25.9732H87.5421C87.358 25.9732 87.2001 25.8121 87.2001 25.6242V24.0269C87.2001 23.839 87.358 23.6779 87.5421 23.6779H94.7496C94.9337 23.6779 95.0916 23.5168 95.0916 23.3289V20.1611C95.0916 19.9732 94.9337 19.8121 94.7496 19.8121H83.2807C83.0966 19.8121 82.9388 19.9732 82.9388 20.1611V35.6645C82.9388 35.8524 83.0966 36.0135 83.2807 36.0135V36.0001Z" fill="white"/>
<path d="M106.179 24.9531L108.902 30.7651C109.073 31.141 108.586 31.4497 108.336 31.1276L105.14 27.1141C105.14 27.1141 105.127 27.1007 105.114 27.0873L100.563 19.9598C100.497 19.8658 100.392 19.7987 100.274 19.7987H96.5383C96.3542 19.7987 96.1964 19.9598 96.1964 20.1477V35.6511C96.1964 35.839 96.3542 36 96.5383 36H100.116C100.3 36 100.458 35.839 100.458 35.6511V31.5571C100.458 31.5034 100.458 31.4631 100.431 31.4094L97.4853 24.8994C97.3143 24.5235 97.8009 24.2148 98.0508 24.537L101.431 28.7249C101.431 28.7249 101.444 28.7383 101.444 28.7517L106.166 35.8658C106.232 35.9598 106.337 36.0135 106.442 36.0135H110.046C110.23 36.0135 110.388 35.8524 110.388 35.6645V20.1611C110.388 19.9732 110.23 19.8121 110.046 19.8121H106.468C106.284 19.8121 106.126 19.9732 106.126 20.1611V24.8188C106.126 24.8725 106.126 24.9262 106.166 24.9665L106.179 24.9531Z" fill="white"/>
<path d="M111.598 20.1477V23.3155C111.598 23.5034 111.756 23.6645 111.94 23.6645H115.833C116.017 23.6645 116.175 23.8256 116.175 24.0135V35.6511C116.175 35.839 116.333 36 116.517 36H120.094C120.278 36 120.436 35.839 120.436 35.6511V24.0135C120.436 23.8256 120.594 23.6645 120.778 23.6645H124.671C124.855 23.6645 125.013 23.5034 125.013 23.3155V20.1477C125.013 19.9598 124.855 19.7987 124.671 19.7987H111.94C111.756 19.7987 111.598 19.9598 111.598 20.1477Z" fill="white"/>
<path d="M13.1787 16.3087L1.3284 14.094C1.09166 14.0537 0.86807 14.2148 0.828613 14.4429L1.46567e-05 19.0201C-0.0394424 19.2617 0.118386 19.4899 0.341976 19.5302L6.03695 20.5906C6.10271 20.5906 6.16847 20.5906 6.23423 20.5906L13.2576 18.6443C13.6916 18.5235 14.0204 18.1611 14.0993 17.7047C14.2177 17.047 13.7968 16.4295 13.1524 16.3087H13.1787Z" fill="#E8472F"/>
<path d="M13.2444 19.7047L2.77512 25.7718C2.56468 25.8926 2.49892 26.1611 2.61729 26.3758L4.86635 30.4161C4.98472 30.6309 5.24776 30.698 5.4582 30.5772L10.4956 27.651C10.5482 27.6241 10.6008 27.5704 10.6402 27.5168L14.7964 21.4228C15.0594 21.047 15.0726 20.5503 14.849 20.1476C14.5333 19.5705 13.8099 19.3691 13.2444 19.6913V19.7047Z" fill="#E8472F"/>
<path d="M15.4277 22.2684L11.2321 33.7852C11.1532 34.0134 11.2584 34.2684 11.482 34.3489L15.7565 35.9731C15.9801 36.0536 16.23 35.9463 16.3089 35.7181L18.3212 30.1744C18.3475 30.1073 18.3475 30.0402 18.3475 29.9865L17.6899 22.5906C17.6505 22.1342 17.348 21.7315 16.9271 21.5704C16.3221 21.3422 15.6381 21.651 15.4146 22.2818L15.4277 22.2684Z" fill="#E8472F"/>
<path d="M18.7158 22.792L22.7535 34.3625C22.8325 34.5906 23.0824 34.7114 23.3059 34.6309L27.5936 33.0739C27.8172 32.9933 27.9356 32.7383 27.8567 32.5101L25.9101 26.9396C25.8838 26.8725 25.8575 26.8188 25.8049 26.7786L20.636 21.5437C20.3204 21.2215 19.8337 21.1141 19.4129 21.2618C18.8078 21.49 18.479 22.1745 18.7026 22.792H18.7158Z" fill="#E8472F"/>
<path d="M21.5699 21.0335L31.9602 27.2483C32.1707 27.3691 32.4337 27.302 32.5521 27.0872L34.8538 23.0738C34.9721 22.859 34.9064 22.5906 34.6959 22.4698L29.698 19.4765C29.6454 19.4496 29.5797 19.4228 29.5139 19.4228L22.2538 18.8054C21.8066 18.7651 21.3726 18.9933 21.1358 19.396C20.807 19.9731 20.9912 20.698 21.5567 21.0335H21.5699Z" fill="#E8472F"/>
<path d="M22.6484 17.8121L34.525 15.7584C34.7617 15.7182 34.9195 15.49 34.8801 15.2484L34.1172 10.6712C34.0778 10.4296 33.8542 10.2685 33.6174 10.3088L27.9093 11.3021C27.8436 11.3021 27.7909 11.3423 27.7383 11.3826L21.7935 15.6645C21.4252 15.9329 21.2411 16.3893 21.3068 16.8457C21.4121 17.5034 22.0171 17.9329 22.6615 17.8256L22.6484 17.8121Z" fill="#E8472F"/>
<path d="M21.4515 14.6443L29.2508 5.28864C29.4087 5.10072 29.3824 4.81884 29.1982 4.67119L25.726 1.66448C25.5419 1.50341 25.2657 1.53025 25.121 1.71817L21.3726 6.21482C21.3331 6.26851 21.3068 6.3222 21.2805 6.38931L19.4129 13.5705C19.2945 14.0135 19.4392 14.4967 19.7943 14.792C20.2941 15.2215 21.0306 15.1544 21.4515 14.6578V14.6443Z" fill="#E8472F"/>
<path d="M18.5317 13.0067L18.6106 0.724804C18.6106 0.483193 18.4133 0.281851 18.1765 0.281851L13.6258 0.255005C13.3891 0.255005 13.1918 0.456347 13.1918 0.697958L13.1523 6.604C13.1523 6.67111 13.1655 6.73823 13.1918 6.79192L16.2958 13.5167C16.493 13.9329 16.9008 14.2013 17.3479 14.2013C17.9924 14.2013 18.5317 13.6778 18.5317 13.0067Z" fill="#E8472F"/>
<path d="M15.2699 13.6644L7.58891 4.20133C7.43108 4.01341 7.16803 3.98656 6.9839 4.14763L3.47222 7.11408C3.28809 7.27515 3.26178 7.54361 3.41961 7.73153L7.11542 12.2819C7.15488 12.3356 7.20749 12.3758 7.27325 12.4027L13.8757 15.5168C14.2835 15.7047 14.7701 15.651 15.1252 15.3557C15.625 14.9396 15.6908 14.1745 15.283 13.6644H15.2699Z" fill="#E8472F"/>
</g>
<defs>
<clipPath id="clip0_417_3580">
<rect width="125" height="36" fill="white"/>
</clipPath>
</defs>
</svg>
