<svg width="12" height="10" viewBox="0 0 12 10" fill="none" xmlns="http://www.w3.org/2000/svg">
<path d="M0.144256 8.67797C1.18238 9.37067 2.42813 9.74366 3.72579 9.74366C8.08592 9.74366 10.5255 5.96046 10.3698 2.60355C10.837 2.28384 11.2003 1.85757 11.5117 1.37801C11.0965 1.59114 10.6293 1.69771 10.1622 1.751C10.6293 1.43129 10.9927 1.00502 11.2003 0.418887C10.7331 0.685309 10.266 0.898446 9.69501 1.00501C9.27976 0.525455 8.65688 0.259033 7.9821 0.259033C6.47682 0.259033 5.38679 1.69771 5.69823 3.18968C3.77769 3.08311 2.01288 2.12399 0.870941 0.685308C0.248065 1.751 0.559508 3.18968 1.59763 3.88237C1.23429 3.88237 0.870945 3.7758 0.559508 3.56267C0.559508 4.68164 1.28619 5.69404 2.42813 5.96046C2.11669 6.06703 1.75335 6.06703 1.39 5.96046C1.70144 6.91958 2.53194 7.61228 3.57007 7.61228C2.58385 8.41155 1.3381 8.73125 0.0923462 8.62469L0.144256 8.67797Z" fill="white"/>
</svg>
