<svg width="18" height="19" viewBox="0 0 18 19" fill="none" xmlns="http://www.w3.org/2000/svg">
<path d="M6.79653 8.27548L0.687887 7.1338C0.56585 7.11304 0.450592 7.19608 0.430253 7.3137L0.00312236 9.67317C-0.0172172 9.79772 0.064141 9.91535 0.179398 9.9361L3.11507 10.4827C3.14897 10.4827 3.18287 10.4827 3.21677 10.4827L6.83721 9.47943C7.06094 9.41716 7.23044 9.23034 7.27112 8.99508C7.33214 8.65604 7.11518 8.33775 6.78297 8.27548H6.79653Z" fill="#E8472F"/>
<path d="M6.83051 10.026L1.43376 13.1535C1.32528 13.2158 1.29138 13.3542 1.3524 13.4649L2.51175 15.5476C2.57277 15.6583 2.70837 15.6929 2.81685 15.6306L5.41353 14.1222C5.44065 14.1084 5.46776 14.0807 5.4881 14.053L7.63054 10.9117C7.76613 10.7179 7.77291 10.4619 7.65765 10.2543C7.49494 9.95681 7.12205 9.85302 6.83051 10.0191V10.026Z" fill="#E8472F"/>
<path d="M7.95574 11.3476L5.79297 17.2843C5.75229 17.4019 5.80653 17.5334 5.92179 17.5749L8.12524 18.4122C8.24049 18.4537 8.36931 18.3983 8.40999 18.2807L9.44731 15.423C9.46087 15.3884 9.46087 15.3538 9.46087 15.3262L9.12187 11.5137C9.10153 11.2784 8.9456 11.0708 8.72864 10.9878C8.41677 10.8702 8.06422 11.0293 7.94896 11.3545L7.95574 11.3476Z" fill="#E8472F"/>
<path d="M9.65096 11.6175L11.7324 17.5819C11.7731 17.6995 11.9019 17.7618 12.0171 17.7203L14.2274 16.9176C14.3426 16.8761 14.4036 16.7446 14.363 16.627L13.3595 13.7555C13.346 13.7209 13.3324 13.6933 13.3053 13.6725L10.6408 10.974C10.4781 10.8079 10.2272 10.7526 10.0103 10.8287C9.69842 10.9463 9.52892 11.2992 9.64418 11.6175H9.65096Z" fill="#E8472F"/>
<path d="M11.1223 10.711L16.4784 13.9146C16.5869 13.9769 16.7225 13.9423 16.7835 13.8316L17.9699 11.7627C18.031 11.652 17.9971 11.5136 17.8886 11.4514L15.3122 9.90838C15.2851 9.89454 15.2512 9.8807 15.2173 9.8807L11.4749 9.56241C11.2443 9.54166 11.0206 9.65928 10.8986 9.86686C10.7291 10.1644 10.824 10.538 11.1155 10.711H11.1223Z" fill="#E8472F"/>
<path d="M11.6781 9.05049L17.8003 7.99184C17.9223 7.97109 18.0036 7.85346 17.9833 7.72891L17.5901 5.36944C17.5697 5.2449 17.4545 5.16186 17.3324 5.18262L14.39 5.69465C14.3561 5.69465 14.329 5.71541 14.3019 5.73616L11.2374 7.94341C11.0475 8.08179 10.9526 8.31705 10.9865 8.5523C11.0407 8.89135 11.3526 9.11276 11.6848 9.05741L11.6781 9.05049Z" fill="#E8472F"/>
<path d="M11.061 7.41745L15.0815 2.59472C15.1629 2.49785 15.1493 2.35254 15.0544 2.27643L13.2645 0.726517C13.1696 0.643486 13.0272 0.657324 12.9526 0.754194L11.0204 3.07215C11 3.09982 10.9865 3.1275 10.9729 3.1621L10.0102 6.8639C9.94915 7.09224 10.0237 7.34133 10.2068 7.49356C10.4644 7.71497 10.8441 7.68038 11.061 7.42436V7.41745Z" fill="#E8472F"/>
<path d="M9.55592 6.5733L9.59659 0.242174C9.59659 0.117628 9.4949 0.0138385 9.37286 0.0138385L7.02703 0C6.905 0 6.8033 0.103789 6.8033 0.228336L6.78296 3.27281C6.78296 3.30741 6.78974 3.342 6.8033 3.36968L8.40334 6.83623C8.50504 7.05073 8.71521 7.18912 8.94573 7.18912C9.27794 7.18912 9.55592 6.91926 9.55592 6.5733Z" fill="#E8472F"/>
<path d="M7.87471 6.9123L3.91528 2.03422C3.83392 1.93735 3.69832 1.92352 3.60341 2.00655L1.79319 3.5357C1.69827 3.61873 1.68471 3.75712 1.76607 3.85399L3.6712 6.19962C3.69154 6.2273 3.71866 6.24806 3.75256 6.26189L7.15604 7.86716C7.36622 7.96403 7.61707 7.93636 7.80013 7.78413C8.05776 7.56963 8.09166 7.17524 7.88149 6.9123H7.87471Z" fill="#E8472F"/>
</svg>
