<svg width="12" height="13" viewBox="0 0 12 13" fill="none" xmlns="http://www.w3.org/2000/svg">
<path d="M7.28982 5.08342C7.49745 5.08342 7.75698 4.97686 8.06842 4.65715V5.03014H8.7432V1.4068H8.06842V4.1243C7.96461 4.23087 7.80889 4.39073 7.70507 4.39073C7.60126 4.39073 7.54936 4.28416 7.54936 4.1243V1.35352H6.87457V4.33744C6.87457 4.71043 6.97839 4.97686 7.34173 4.97686L7.28982 5.08342Z" fill="white"/>
<path d="M4.38306 4.17747C4.38306 4.81688 4.69449 5.13658 5.31737 5.13658C5.94024 5.13658 6.25168 4.76359 6.25168 4.17747V2.41908C6.25168 1.83295 5.83643 1.45996 5.31737 1.45996C4.7983 1.45996 4.38306 1.83295 4.38306 2.41908V4.17747ZM5.05784 2.47236C5.05784 2.25923 5.16165 2.15266 5.31737 2.15266C5.47309 2.15266 5.5769 2.31251 5.5769 2.47236V4.12418C5.5769 4.33732 5.47309 4.44389 5.31737 4.44389C5.16165 4.44389 5.05784 4.28403 5.05784 4.12418V2.47236Z" fill="white"/>
<path d="M2.82589 5.03003H3.55258V3.05851L4.43499 0.181152H3.65639L3.18923 2.09939L2.67017 0.181152H1.94348L2.82589 3.05851V5.03003Z" fill="white"/>
<path d="M9.57371 5.88257H1.89157C1.06107 5.88257 0.386292 6.57527 0.386292 7.42782V11.3176C0.386292 12.1701 1.06107 12.8628 1.89157 12.8628H9.57371C10.4042 12.8628 11.079 12.1701 11.079 11.3176V7.42782C11.079 6.57527 10.4042 5.88257 9.57371 5.88257ZM2.9297 11.6906H2.25492V7.69424H1.52823V7.00154H3.65639V7.69424H2.9297V11.6906ZM5.4212 11.6906H4.79833V11.3176C4.69451 11.4774 4.5388 11.584 4.43498 11.6373C4.12355 11.8504 3.65639 11.8504 3.65639 11.1577V8.28037H4.27926V10.8913C4.27926 11.0512 4.27927 11.1044 4.43498 11.1044C4.5907 11.1044 4.74642 10.9446 4.79833 10.838V8.22708H5.4212V11.6373V11.6906ZM7.80889 10.9979C7.80889 11.4241 7.65317 11.7439 7.23792 11.7439C6.82267 11.7439 6.82267 11.6373 6.66695 11.4241V11.6906H6.04408V7.05483H6.66695V8.54679C6.82267 8.38694 6.97839 8.22708 7.23792 8.22708C7.70508 8.22708 7.8608 8.60007 7.8608 9.07963V10.9979H7.80889ZM10.0928 10.092H8.89892V10.7314C8.89892 10.9979 8.89892 11.211 9.15846 11.211C9.41799 11.211 9.41799 11.0512 9.41799 10.7314V10.5183H10.0409V10.7847C10.0409 11.4241 9.78133 11.8504 9.10655 11.8504C8.43177 11.8504 8.22414 11.4241 8.22414 10.7847V9.23949C8.22414 8.65336 8.58749 8.22708 9.15846 8.22708C9.72943 8.22708 10.0409 8.60007 10.0409 9.23949V10.092H10.0928Z" fill="white"/>
<path d="M9.15846 8.76001C8.95083 8.76001 8.89893 8.91986 8.89893 9.18628V9.55928H9.46989V9.18628C9.46989 8.97315 9.46989 8.76001 9.21036 8.76001H9.15846Z" fill="white"/>
<path d="M6.77075 8.76001C6.77075 8.76001 6.66693 8.81329 6.66693 8.86658V10.998C6.66693 11.0512 6.77075 11.1045 6.82265 11.1045C6.92646 11.1045 7.08218 11.1578 7.13409 11.1045C7.13409 11.1045 7.18599 10.998 7.18599 10.8914V9.133C7.18599 9.02643 7.18599 8.91986 7.13409 8.86658C7.08218 8.76001 6.92646 8.76001 6.82265 8.81329L6.77075 8.76001Z" fill="white"/>
</svg>
